<svg width="545" height="387" viewBox="0 0 545 387" fill="none" xmlns="http://www.w3.org/2000/svg">
<g clip-path="url(#clip0_575_374)">
<path d="M507.396 6.82788H413.454C411.157 6.82788 409.295 8.68957 409.295 10.9861V66.3764C409.295 68.6729 411.157 70.5346 413.454 70.5346H507.396C509.693 70.5346 511.555 68.6729 511.555 66.3764V10.9861C511.555 8.68957 509.693 6.82788 507.396 6.82788Z" fill="#F4F4F4"/>
<g opacity="0.04">
<path d="M507.398 6.82788H413.453C412.354 6.82774 411.299 7.26291 410.519 8.03825C409.74 8.81358 409.299 9.86599 409.293 10.9654L460.423 45.8531L511.554 10.9654C511.548 9.86663 511.108 8.8147 510.329 8.03944C509.55 7.26417 508.497 6.8286 507.398 6.82788Z" fill="#292A2E"/>
</g>
<path d="M539.751 258.237H421.164C418.264 258.237 415.914 260.587 415.914 263.486V333.408C415.914 336.307 418.264 338.657 421.164 338.657H539.751C542.651 338.657 545.001 336.307 545.001 333.408V263.486C545.001 260.587 542.651 258.237 539.751 258.237Z" fill="#F4F4F4"/>
<g opacity="0.04">
<path d="M539.752 258.237H421.163C419.775 258.237 418.444 258.786 417.46 259.764C416.476 260.743 415.919 262.071 415.912 263.459L480.456 307.499L544.998 263.459C544.99 262.072 544.435 260.745 543.452 259.766C542.469 258.788 541.139 258.238 539.752 258.237Z" fill="#292A2E"/>
</g>
<path d="M138.695 107.211H46.0673C43.8026 107.211 41.9668 109.047 41.9668 111.311V165.926C41.9668 168.191 43.8026 170.026 46.0673 170.026H138.695C140.96 170.026 142.796 168.191 142.796 165.926V111.311C142.796 109.047 140.96 107.211 138.695 107.211Z" fill="#F4F4F4"/>
<g opacity="0.04">
<path d="M138.694 107.211H46.0667C44.9825 107.211 43.9424 107.64 43.1737 108.405C42.4051 109.169 41.9704 110.207 41.9648 111.291L92.3793 145.692L142.794 111.292C142.789 110.208 142.355 109.171 141.586 108.406C140.818 107.641 139.778 107.212 138.694 107.211Z" fill="#292A2E"/>
</g>
<path d="M138.07 145.478C136.878 144.922 135.698 144.347 134.565 143.77C134.417 143.695 134.246 143.682 134.089 143.733C133.932 143.784 133.801 143.896 133.726 144.043C133.651 144.19 133.638 144.361 133.689 144.519C133.74 144.676 133.851 144.806 133.999 144.881C135.145 145.465 136.337 146.046 137.542 146.609C137.691 146.675 137.86 146.68 138.014 146.623C138.167 146.566 138.291 146.451 138.36 146.303C138.43 146.154 138.438 145.985 138.383 145.831C138.329 145.677 138.216 145.55 138.069 145.478H138.07Z" fill="#292A2E"/>
<path d="M156.298 152.408L156.209 152.381C154.985 152.006 153.763 151.616 152.578 151.222C152.421 151.17 152.25 151.182 152.102 151.256C151.954 151.33 151.842 151.46 151.79 151.617C151.737 151.773 151.75 151.945 151.824 152.093C151.898 152.24 152.028 152.353 152.184 152.405C153.381 152.803 154.61 153.195 155.839 153.571L155.937 153.601L155.967 153.609C156.125 153.651 156.293 153.628 156.435 153.546C156.577 153.464 156.681 153.33 156.724 153.172C156.768 153.014 156.748 152.846 156.668 152.703C156.588 152.56 156.455 152.454 156.298 152.408Z" fill="#292A2E"/>
<path d="M129.424 140.983C128.292 140.328 127.17 139.649 126.09 138.968C126.021 138.921 125.943 138.889 125.861 138.874C125.779 138.858 125.695 138.859 125.614 138.876C125.532 138.893 125.455 138.927 125.387 138.974C125.318 139.022 125.26 139.083 125.216 139.153C125.171 139.223 125.141 139.302 125.128 139.384C125.114 139.466 125.117 139.55 125.136 139.631C125.156 139.712 125.191 139.789 125.24 139.856C125.29 139.923 125.352 139.979 125.424 140.022C126.518 140.712 127.654 141.402 128.799 142.063C128.85 142.092 128.904 142.114 128.961 142.128C129.107 142.164 129.261 142.146 129.395 142.078C129.528 142.01 129.633 141.896 129.69 141.756C129.746 141.617 129.75 141.462 129.701 141.32C129.653 141.178 129.554 141.058 129.424 140.983Z" fill="#292A2E"/>
<path d="M165.695 155.194C164.426 154.826 163.171 154.46 161.931 154.096C161.853 154.071 161.77 154.062 161.688 154.07C161.606 154.078 161.526 154.102 161.454 154.142C161.382 154.181 161.318 154.234 161.267 154.299C161.216 154.363 161.178 154.438 161.156 154.517C161.11 154.676 161.128 154.846 161.207 154.992C161.286 155.137 161.42 155.245 161.578 155.292C162.819 155.658 164.076 156.025 165.349 156.392L165.371 156.398C165.529 156.436 165.696 156.41 165.835 156.327C165.975 156.244 166.076 156.11 166.118 155.953C166.16 155.796 166.139 155.629 166.06 155.487C165.981 155.345 165.849 155.24 165.693 155.194H165.695Z" fill="#292A2E"/>
<path d="M121.253 135.696C120.195 134.93 119.154 134.138 118.155 133.341C118.026 133.238 117.861 133.19 117.696 133.209C117.532 133.227 117.382 133.31 117.279 133.44C117.176 133.569 117.128 133.734 117.146 133.898C117.165 134.062 117.248 134.213 117.377 134.316C118.392 135.125 119.448 135.929 120.521 136.706C120.586 136.752 120.659 136.786 120.736 136.806C120.877 136.841 121.025 136.826 121.155 136.763C121.286 136.701 121.391 136.595 121.452 136.464C121.513 136.333 121.527 136.184 121.491 136.044C121.454 135.904 121.37 135.781 121.253 135.696Z" fill="#292A2E"/>
<path d="M147.06 149.262C145.844 148.802 144.621 148.32 143.429 147.829C143.353 147.798 143.272 147.782 143.19 147.782C143.109 147.782 143.027 147.799 142.952 147.83C142.876 147.862 142.808 147.908 142.75 147.966C142.692 148.024 142.646 148.093 142.615 148.169C142.584 148.244 142.568 148.325 142.568 148.407C142.569 148.489 142.585 148.57 142.616 148.646C142.648 148.721 142.694 148.79 142.752 148.848C142.81 148.905 142.879 148.951 142.955 148.982C144.159 149.478 145.393 149.965 146.619 150.428C146.641 150.437 146.665 150.444 146.689 150.45C146.843 150.488 147.006 150.466 147.144 150.388C147.283 150.31 147.386 150.182 147.434 150.031C147.481 149.879 147.469 149.715 147.399 149.572C147.33 149.429 147.208 149.318 147.06 149.262Z" fill="#292A2E"/>
<path d="M113.733 129.539C112.779 128.652 111.847 127.737 110.959 126.82C110.902 126.761 110.834 126.714 110.759 126.681C110.684 126.648 110.603 126.631 110.521 126.629C110.439 126.628 110.358 126.643 110.282 126.673C110.206 126.703 110.136 126.747 110.077 126.804C110.018 126.861 109.971 126.929 109.938 127.004C109.906 127.079 109.888 127.16 109.887 127.242C109.885 127.324 109.9 127.405 109.93 127.481C109.96 127.557 110.005 127.627 110.062 127.686C110.963 128.62 111.913 129.551 112.884 130.453C112.944 130.509 113.015 130.552 113.092 130.58C113.168 130.609 113.25 130.622 113.332 130.619C113.414 130.616 113.494 130.597 113.569 130.563C113.643 130.529 113.71 130.48 113.766 130.42C113.822 130.36 113.865 130.29 113.893 130.213C113.922 130.137 113.935 130.055 113.932 129.973C113.929 129.891 113.91 129.811 113.876 129.736C113.842 129.662 113.793 129.595 113.733 129.539Z" fill="#292A2E"/>
<path d="M113.697 53.0515C114.626 52.172 115.6 51.2975 116.59 50.4528C116.652 50.3997 116.703 50.3348 116.74 50.2618C116.778 50.1889 116.8 50.1093 116.806 50.0277C116.813 49.946 116.803 49.8639 116.778 49.786C116.753 49.7082 116.712 49.636 116.659 49.5737C116.606 49.5114 116.541 49.4602 116.468 49.423C116.395 49.3858 116.316 49.3634 116.234 49.3569C116.152 49.3505 116.07 49.3602 115.992 49.3854C115.914 49.4107 115.842 49.4511 115.78 49.5043C114.774 50.3627 113.785 51.2524 112.839 52.1462C112.78 52.2025 112.732 52.27 112.699 52.3447C112.665 52.4195 112.647 52.5001 112.645 52.582C112.643 52.6638 112.656 52.7453 112.686 52.8218C112.715 52.8982 112.759 52.9682 112.815 53.0276C112.872 53.0871 112.939 53.1348 113.014 53.1682C113.089 53.2016 113.169 53.2199 113.251 53.2221C113.333 53.2244 113.415 53.2104 113.491 53.1812C113.568 53.1519 113.637 53.1078 113.697 53.0515Z" fill="#292A2E"/>
<path d="M97.0521 77.495C97.0669 77.5001 97.0816 77.5042 97.0981 77.5079C97.2508 77.5459 97.4123 77.5249 97.55 77.4488C97.6878 77.3728 97.7916 77.2474 97.8408 77.098C98.2397 75.8886 98.6952 74.6681 99.1953 73.4711C99.2591 73.3186 99.2598 73.147 99.197 72.994C99.1343 72.8411 99.0134 72.7193 98.8608 72.6555C98.7083 72.5917 98.5366 72.5911 98.3837 72.6538C98.2307 72.7165 98.1089 72.8374 98.045 72.9899C97.5325 74.2168 97.0655 75.4676 96.6564 76.7079C96.6046 76.8647 96.6172 77.0357 96.6914 77.1833C96.7656 77.3309 96.8953 77.443 97.0521 77.495Z" fill="#292A2E"/>
<path d="M95.7707 86.5268C95.912 85.2595 96.1107 83.975 96.3615 82.7086C96.3774 82.6283 96.3774 82.5456 96.3613 82.4653C96.3453 82.385 96.3136 82.3087 96.2681 82.2406C96.2225 82.1726 96.164 82.1141 96.0959 82.0687C96.0278 82.0233 95.9513 81.9917 95.871 81.9758C95.7907 81.9598 95.708 81.9599 95.6277 81.9759C95.5474 81.992 95.471 82.0236 95.403 82.0692C95.3349 82.1147 95.2765 82.1732 95.231 82.2413C95.1856 82.3094 95.154 82.3858 95.1381 82.4662C94.8804 83.768 94.678 85.0883 94.5312 86.3897C94.5145 86.5396 94.5526 86.6904 94.6386 86.8143C94.7245 86.9382 94.8524 87.0268 94.9987 87.0637C95.026 87.0707 95.0538 87.0756 95.0819 87.0784C95.1634 87.0875 95.2459 87.0805 95.3246 87.0577C95.4034 87.0349 95.4769 86.9968 95.5408 86.9456C95.6048 86.8943 95.6581 86.831 95.6975 86.7591C95.737 86.6873 95.7618 86.6083 95.7707 86.5268Z" fill="#292A2E"/>
<path d="M103.543 64.0572C103.404 63.9675 103.236 63.9365 103.074 63.971C102.912 64.0055 102.771 64.1027 102.681 64.2412C101.958 65.3577 101.272 66.5004 100.64 67.639C100.56 67.7837 100.541 67.9543 100.587 68.1132C100.632 68.2722 100.739 68.4066 100.884 68.4868C100.932 68.5129 100.982 68.533 101.035 68.5466C101.169 68.5797 101.309 68.568 101.435 68.5132C101.561 68.4584 101.665 68.3636 101.732 68.2435C102.349 67.1297 103.02 66.0114 103.727 64.9188C103.817 64.7801 103.848 64.6115 103.813 64.45C103.779 64.2884 103.682 64.1472 103.543 64.0572Z" fill="#292A2E"/>
<path d="M95.5013 92.3145C95.495 92.1513 95.425 91.9971 95.3063 91.8849C95.1875 91.7728 95.0296 91.7117 94.8663 91.7147C94.703 91.7177 94.5474 91.7846 94.4329 91.9011C94.3184 92.0175 94.2542 92.1742 94.2539 92.3375C94.2783 93.655 94.3616 94.9891 94.5005 96.3034C94.5091 96.3848 94.5337 96.4637 94.5728 96.5356C94.6119 96.6075 94.6648 96.671 94.7285 96.7225C94.7921 96.774 94.8653 96.8124 94.9438 96.8356C95.0223 96.8588 95.1047 96.8663 95.1861 96.8577C95.2675 96.8491 95.3464 96.8245 95.4183 96.7854C95.4903 96.7463 95.5538 96.6934 95.6053 96.6298C95.6568 96.5661 95.6952 96.493 95.7184 96.4145C95.7416 96.336 95.7491 96.2537 95.7405 96.1723C95.6057 94.8939 95.5247 93.5961 95.5013 92.3145Z" fill="#292A2E"/>
<path d="M106.25 60.296C106.319 60.3516 106.4 60.3914 106.486 60.4129C106.602 60.4419 106.724 60.4368 106.838 60.3982C106.951 60.3596 107.051 60.2892 107.126 60.1953C107.917 59.1984 108.76 58.1992 109.63 57.2262C109.736 57.1022 109.788 56.942 109.777 56.7799C109.766 56.6177 109.691 56.4663 109.57 56.358C109.449 56.2496 109.29 56.1929 109.128 56.1998C108.965 56.2067 108.812 56.2767 108.701 56.395C107.814 57.3863 106.955 58.4039 106.149 59.4206C106.098 59.4847 106.06 59.5582 106.038 59.6369C106.015 59.7156 106.008 59.798 106.018 59.8793C106.027 59.9606 106.053 60.0393 106.092 60.1108C106.132 60.1823 106.186 60.2452 106.25 60.296Z" fill="#292A2E"/>
<path d="M99.9022 111C99.8326 110.85 99.7062 110.734 99.5509 110.677C99.3956 110.621 99.2241 110.628 99.074 110.697C98.924 110.767 98.8078 110.893 98.7509 111.049C98.694 111.204 98.7012 111.375 98.7708 111.525C99.3202 112.707 99.9275 113.895 100.576 115.056C100.659 115.196 100.794 115.298 100.951 115.341C101.108 115.383 101.276 115.362 101.418 115.283C101.56 115.203 101.666 115.071 101.712 114.915C101.758 114.759 101.741 114.591 101.665 114.447C101.031 113.314 100.441 112.155 99.9022 111Z" fill="#292A2E"/>
<path d="M124.52 43.7225C124.428 43.5852 124.285 43.4902 124.122 43.4583C123.96 43.4263 123.792 43.4602 123.654 43.5523C122.554 44.2883 121.468 45.0538 120.424 45.823C120.358 45.8716 120.302 45.9326 120.26 46.0027C120.217 46.0728 120.189 46.1506 120.177 46.2315C120.165 46.3125 120.169 46.3951 120.188 46.4745C120.208 46.554 120.243 46.6288 120.291 46.6948C120.34 46.7607 120.401 46.8164 120.471 46.8587C120.541 46.901 120.619 46.9291 120.7 46.9413C120.781 46.9536 120.864 46.9498 120.943 46.9301C121.023 46.9105 121.097 46.8754 121.163 46.8268C122.193 46.0687 123.265 45.3151 124.349 44.5874C124.487 44.4953 124.582 44.3525 124.614 44.1903C124.646 44.0281 124.612 43.8598 124.52 43.7225Z" fill="#292A2E"/>
<path d="M107.104 122.457C106.288 121.445 105.501 120.404 104.768 119.362C104.721 119.293 104.662 119.234 104.592 119.188C104.523 119.142 104.445 119.111 104.363 119.095C104.281 119.08 104.197 119.082 104.116 119.099C104.034 119.117 103.957 119.151 103.889 119.199C103.821 119.247 103.764 119.308 103.72 119.378C103.676 119.449 103.646 119.528 103.633 119.61C103.62 119.692 103.623 119.776 103.643 119.857C103.663 119.938 103.698 120.014 103.748 120.081C104.497 121.144 105.299 122.207 106.134 123.241C106.184 123.307 106.247 123.363 106.32 123.404C106.392 123.446 106.472 123.472 106.555 123.482C106.637 123.492 106.721 123.486 106.802 123.463C106.882 123.44 106.956 123.401 107.021 123.349C107.086 123.297 107.14 123.232 107.18 123.158C107.219 123.085 107.243 123.004 107.251 122.921C107.259 122.838 107.25 122.754 107.224 122.675C107.199 122.595 107.158 122.522 107.104 122.458V122.457Z" fill="#292A2E"/>
<path d="M96.7186 101.885C96.6802 101.724 96.5796 101.585 96.4387 101.498C96.2978 101.412 96.1283 101.385 95.9674 101.423C95.8065 101.461 95.6675 101.562 95.5808 101.703C95.4941 101.844 95.4669 102.013 95.5052 102.174C95.8094 103.451 96.1724 104.736 96.5842 105.992C96.6357 106.149 96.7475 106.28 96.8951 106.354C97.0426 106.429 97.2138 106.442 97.371 106.391C97.5282 106.339 97.6584 106.227 97.7332 106.08C97.8079 105.932 97.8209 105.761 97.7694 105.604C97.3682 104.381 97.0149 103.129 96.7186 101.885Z" fill="#292A2E"/>
<path d="M132.961 38.7446C132.883 38.5987 132.751 38.4897 132.592 38.4416C132.434 38.3934 132.263 38.4101 132.117 38.4879C130.954 39.1084 129.794 39.7557 128.672 40.4112C128.601 40.4526 128.54 40.5074 128.49 40.5726C128.441 40.6379 128.404 40.7122 128.384 40.7914C128.363 40.8706 128.358 40.9531 128.369 41.0342C128.38 41.1153 128.407 41.1935 128.449 41.2641C128.49 41.3348 128.545 41.3967 128.61 41.4462C128.675 41.4957 128.75 41.5318 128.829 41.5526C128.908 41.5733 128.99 41.5783 129.072 41.5672C129.153 41.556 129.231 41.529 129.302 41.4877C130.41 40.8405 131.556 40.1996 132.706 39.5883C132.852 39.5101 132.961 39.3773 133.008 39.2191C133.056 39.0609 133.039 38.8903 132.961 38.7446Z" fill="#292A2E"/>
<path d="M139.266 35.0045C138.658 35.275 138.056 35.5488 137.459 35.8261C137.385 35.8605 137.318 35.9093 137.262 35.9696C137.207 36.0298 137.164 36.1004 137.136 36.1773C137.108 36.2542 137.095 36.3359 137.098 36.4177C137.102 36.4995 137.121 36.5799 137.156 36.6541C137.19 36.7284 137.239 36.7952 137.299 36.8506C137.359 36.906 137.43 36.9491 137.507 36.9772C137.584 37.0054 137.665 37.0181 137.747 37.0147C137.829 37.0113 137.909 36.9918 137.984 36.9573C138.575 36.6813 139.172 36.4102 139.773 36.144C139.918 36.0731 140.031 35.9487 140.086 35.7969C140.141 35.6451 140.135 35.4778 140.07 35.3301C140.004 35.1824 139.884 35.066 139.734 35.0052C139.584 34.9445 139.417 34.9442 139.267 35.0045H139.266Z" fill="#292A2E"/>
<path d="M414.939 362.945C413.712 363.183 413.027 363.29 413.02 363.291C412.939 363.304 412.861 363.332 412.791 363.375C412.721 363.417 412.66 363.473 412.612 363.539C412.515 363.673 412.474 363.84 412.5 364.003C412.525 364.167 412.615 364.313 412.748 364.411C412.882 364.508 413.048 364.549 413.212 364.523C413.24 364.519 413.924 364.412 415.177 364.168C415.258 364.154 415.335 364.123 415.405 364.078C415.474 364.033 415.533 363.975 415.58 363.907C415.627 363.839 415.659 363.762 415.676 363.681C415.693 363.6 415.693 363.517 415.677 363.436C415.662 363.355 415.63 363.278 415.584 363.209C415.538 363.141 415.48 363.082 415.411 363.036C415.342 362.99 415.265 362.959 415.184 362.943C415.103 362.927 415.019 362.928 414.939 362.945Z" fill="#292A2E"/>
<path d="M508.466 277.152C508.36 278.444 508.223 279.746 508.06 281.023C508.04 281.175 508.077 281.328 508.163 281.454C508.249 281.58 508.378 281.67 508.526 281.707C508.55 281.713 508.575 281.718 508.599 281.721C508.68 281.731 508.763 281.725 508.842 281.704C508.921 281.683 508.995 281.646 509.06 281.596C509.125 281.546 509.179 281.483 509.22 281.412C509.26 281.341 509.287 281.263 509.297 281.182C509.463 279.886 509.601 278.565 509.711 277.254C509.717 277.094 509.661 276.937 509.554 276.817C509.448 276.697 509.299 276.623 509.139 276.61C508.979 276.596 508.82 276.645 508.695 276.746C508.57 276.847 508.489 276.992 508.469 277.152H508.466Z" fill="#292A2E"/>
<path d="M508.763 271.317C508.76 271.458 508.805 271.596 508.89 271.708C508.976 271.82 509.097 271.9 509.234 271.934C509.279 271.946 509.326 271.952 509.372 271.953C509.454 271.954 509.535 271.94 509.612 271.91C509.688 271.88 509.758 271.835 509.817 271.779C509.876 271.722 509.923 271.654 509.956 271.579C509.988 271.504 510.006 271.423 510.008 271.341C510.033 270.047 510.032 268.719 510.005 267.396C510.001 267.231 509.933 267.073 509.813 266.959C509.694 266.844 509.534 266.782 509.369 266.785C509.203 266.789 509.046 266.858 508.932 266.977C508.817 267.096 508.755 267.256 508.758 267.421C508.788 268.728 508.788 270.037 508.763 271.317Z" fill="#292A2E"/>
<path d="M507.772 252.41C507.872 252.435 507.977 252.435 508.077 252.41C508.177 252.384 508.269 252.334 508.345 252.264C508.421 252.194 508.479 252.107 508.513 252.009C508.546 251.911 508.555 251.807 508.539 251.705C508.329 250.419 508.096 249.114 507.845 247.826C507.812 247.666 507.717 247.525 507.58 247.434C507.444 247.343 507.277 247.31 507.116 247.341C506.955 247.372 506.813 247.466 506.72 247.601C506.628 247.736 506.592 247.903 506.621 248.064C506.869 249.34 507.1 250.632 507.307 251.906C507.327 252.026 507.381 252.138 507.464 252.228C507.546 252.318 507.654 252.381 507.772 252.41Z" fill="#292A2E"/>
<path d="M484.943 328.75C484.886 328.692 484.817 328.645 484.742 328.613C484.667 328.581 484.586 328.564 484.504 328.563C484.422 328.562 484.341 328.578 484.265 328.608C484.189 328.639 484.12 328.685 484.061 328.742C483.141 329.647 482.185 330.546 481.226 331.416C481.104 331.527 481.03 331.682 481.022 331.847C481.014 332.012 481.072 332.174 481.183 332.297C481.294 332.419 481.449 332.492 481.615 332.501C481.78 332.509 481.942 332.451 482.064 332.34C483.035 331.46 484.001 330.548 484.935 329.632C484.993 329.575 485.04 329.506 485.072 329.431C485.104 329.356 485.121 329.275 485.122 329.193C485.122 329.111 485.107 329.03 485.076 328.954C485.046 328.878 485 328.809 484.943 328.75Z" fill="#292A2E"/>
<path d="M468.928 340.995C467.857 341.713 466.756 342.428 465.652 343.119C465.512 343.206 465.412 343.346 465.375 343.508C465.338 343.669 465.367 343.839 465.455 343.979C465.542 344.119 465.682 344.219 465.844 344.256C466.005 344.293 466.175 344.264 466.315 344.177C467.429 343.479 468.542 342.757 469.623 342.031C469.691 341.985 469.749 341.926 469.795 341.858C469.84 341.79 469.872 341.714 469.887 341.633C469.903 341.553 469.903 341.47 469.887 341.39C469.871 341.31 469.839 341.233 469.793 341.165C469.747 341.098 469.689 341.039 469.621 340.994C469.553 340.949 469.476 340.917 469.396 340.901C469.315 340.886 469.233 340.886 469.152 340.902C469.072 340.918 468.996 340.95 468.928 340.996V340.995Z" fill="#292A2E"/>
<path d="M505.38 242.344C505.398 242.425 505.431 242.502 505.479 242.57C505.526 242.639 505.587 242.697 505.657 242.741C505.728 242.785 505.806 242.815 505.888 242.829C505.97 242.843 506.054 242.84 506.135 242.82C506.216 242.801 506.292 242.766 506.36 242.716C506.427 242.667 506.483 242.605 506.526 242.534C506.569 242.462 506.597 242.383 506.608 242.301C506.62 242.218 506.615 242.134 506.594 242.054C506.291 240.792 505.965 239.508 505.627 238.236C505.584 238.077 505.479 237.941 505.336 237.859C505.194 237.777 505.024 237.755 504.865 237.798C504.706 237.84 504.57 237.944 504.487 238.086C504.404 238.229 504.381 238.398 504.423 238.558C504.758 239.817 505.081 241.091 505.38 242.344Z" fill="#292A2E"/>
<path d="M497.518 220.306C497.473 220.238 497.414 220.179 497.346 220.134C497.277 220.089 497.201 220.057 497.121 220.041C497.04 220.026 496.958 220.026 496.877 220.042C496.797 220.058 496.721 220.09 496.653 220.136C496.585 220.181 496.526 220.24 496.481 220.308C496.436 220.376 496.404 220.453 496.389 220.533C496.373 220.614 496.373 220.696 496.389 220.777C496.405 220.857 496.437 220.933 496.483 221.001C497.209 222.082 497.901 223.186 498.541 224.284C498.581 224.357 498.636 224.421 498.701 224.472C498.766 224.523 498.841 224.561 498.921 224.583C499.001 224.605 499.085 224.611 499.167 224.6C499.249 224.589 499.328 224.562 499.4 224.521C499.472 224.479 499.534 224.423 499.584 224.357C499.634 224.291 499.67 224.215 499.691 224.135C499.711 224.054 499.715 223.97 499.703 223.888C499.69 223.806 499.661 223.728 499.618 223.657C498.965 222.536 498.259 221.409 497.518 220.306Z" fill="#292A2E"/>
<path d="M477.657 335.308C477.553 335.18 477.402 335.098 477.238 335.081C477.074 335.063 476.909 335.112 476.78 335.216C475.782 336.022 474.746 336.826 473.701 337.608C473.574 337.709 473.491 337.855 473.47 338.017C473.449 338.178 473.492 338.341 473.589 338.471C473.687 338.601 473.831 338.688 473.992 338.713C474.152 338.738 474.316 338.7 474.449 338.606C475.507 337.815 476.554 337.001 477.564 336.185C477.628 336.134 477.681 336.07 477.72 335.998C477.759 335.926 477.784 335.847 477.792 335.766C477.801 335.684 477.794 335.602 477.77 335.523C477.747 335.445 477.709 335.372 477.657 335.308Z" fill="#292A2E"/>
<path d="M502.34 228.919C502.271 228.768 502.146 228.651 501.991 228.593C501.836 228.534 501.665 228.54 501.514 228.608C501.364 228.677 501.246 228.802 501.188 228.957C501.13 229.112 501.136 229.283 501.204 229.434C501.738 230.61 502.235 231.815 502.682 233.016C502.743 233.167 502.86 233.288 503.009 233.354C503.157 233.419 503.326 233.424 503.478 233.368C503.631 233.311 503.755 233.197 503.825 233.05C503.894 232.903 503.904 232.735 503.851 232.581C503.394 231.353 502.885 230.121 502.34 228.919Z" fill="#292A2E"/>
<path d="M505.44 295.787C505.363 295.762 505.281 295.751 505.199 295.758C505.117 295.764 505.038 295.786 504.964 295.823C504.891 295.86 504.826 295.91 504.773 295.972C504.719 296.034 504.679 296.106 504.653 296.184C504.248 297.413 503.808 298.644 503.345 299.843C503.285 299.998 503.289 300.169 503.356 300.32C503.423 300.472 503.547 300.59 503.702 300.65C503.726 300.659 503.751 300.666 503.776 300.673C503.923 300.709 504.079 300.691 504.214 300.621C504.349 300.551 504.453 300.434 504.508 300.293C504.979 299.074 505.426 297.823 505.837 296.574C505.863 296.497 505.873 296.415 505.867 296.333C505.861 296.251 505.839 296.172 505.802 296.099C505.765 296.025 505.714 295.96 505.652 295.907C505.59 295.853 505.518 295.813 505.44 295.787Z" fill="#292A2E"/>
<path d="M508.344 287.027C508.362 286.947 508.364 286.864 508.349 286.783C508.334 286.702 508.302 286.625 508.256 286.556C508.211 286.488 508.151 286.429 508.082 286.384C508.013 286.339 507.936 286.309 507.854 286.295C507.692 286.262 507.524 286.296 507.386 286.388C507.249 286.48 507.154 286.622 507.121 286.785C506.868 288.057 506.582 289.335 506.271 290.581C506.25 290.661 506.245 290.745 506.256 290.827C506.267 290.909 506.294 290.987 506.336 291.059C506.378 291.13 506.434 291.192 506.5 291.242C506.567 291.291 506.642 291.327 506.722 291.347C506.803 291.367 506.886 291.371 506.968 291.358C507.05 291.346 507.128 291.317 507.199 291.274C507.27 291.231 507.331 291.174 507.379 291.107C507.428 291.04 507.462 290.964 507.481 290.883C507.797 289.617 508.088 288.32 508.344 287.027Z" fill="#292A2E"/>
<path d="M501.873 304.902C501.799 304.867 501.719 304.847 501.637 304.842C501.555 304.838 501.473 304.85 501.396 304.877C501.319 304.904 501.248 304.947 501.187 305.002C501.126 305.057 501.077 305.123 501.042 305.197C500.49 306.359 499.899 307.526 499.285 308.665C499.247 308.737 499.222 308.816 499.214 308.897C499.206 308.979 499.214 309.061 499.237 309.139C499.261 309.218 499.3 309.291 499.351 309.354C499.403 309.418 499.467 309.47 499.539 309.509C499.611 309.548 499.69 309.572 499.772 309.581C499.853 309.589 499.935 309.581 500.014 309.557C500.092 309.534 500.165 309.495 500.229 309.443C500.292 309.392 500.345 309.328 500.384 309.256C501.007 308.099 501.608 306.914 502.169 305.733C502.24 305.583 502.248 305.412 502.193 305.256C502.137 305.101 502.022 304.973 501.873 304.902Z" fill="#292A2E"/>
<path d="M508.944 262.14C509.04 262.163 509.14 262.164 509.236 262.141C509.332 262.119 509.422 262.074 509.497 262.01C509.572 261.947 509.632 261.866 509.67 261.775C509.708 261.684 509.724 261.585 509.717 261.487C509.618 260.195 509.493 258.875 509.345 257.562C509.325 257.399 509.241 257.252 509.112 257.151C508.984 257.049 508.821 257.003 508.658 257.021C508.495 257.039 508.346 257.12 508.243 257.247C508.14 257.374 508.091 257.537 508.106 257.7C508.252 258.998 508.376 260.304 508.474 261.581C508.484 261.712 508.535 261.836 508.619 261.936C508.703 262.036 508.817 262.108 508.944 262.14Z" fill="#292A2E"/>
<path d="M491.503 321.473C491.439 321.421 491.366 321.382 491.288 321.359C491.209 321.335 491.127 321.327 491.046 321.335C490.964 321.343 490.885 321.367 490.813 321.406C490.741 321.445 490.677 321.497 490.625 321.561C489.81 322.557 488.958 323.552 488.094 324.518C488.04 324.579 487.998 324.65 487.971 324.727C487.944 324.805 487.932 324.886 487.937 324.968C487.941 325.05 487.962 325.13 487.997 325.204C488.033 325.278 488.082 325.344 488.143 325.398C488.204 325.453 488.275 325.495 488.353 325.522C488.43 325.549 488.512 325.561 488.594 325.556C488.675 325.552 488.756 325.531 488.829 325.496C488.903 325.46 488.969 325.411 489.024 325.35C489.901 324.369 490.765 323.361 491.592 322.35C491.644 322.287 491.682 322.214 491.706 322.135C491.729 322.057 491.737 321.975 491.729 321.893C491.721 321.812 491.696 321.733 491.658 321.66C491.619 321.588 491.566 321.525 491.503 321.473Z" fill="#292A2E"/>
<path d="M497.193 313.502C497.124 313.458 497.047 313.428 496.966 313.413C496.886 313.399 496.803 313.401 496.723 313.419C496.643 313.436 496.567 313.47 496.5 313.517C496.433 313.564 496.376 313.624 496.332 313.693C495.642 314.774 494.912 315.86 494.162 316.92C494.113 316.987 494.078 317.062 494.058 317.143C494.039 317.223 494.036 317.307 494.049 317.389C494.062 317.47 494.092 317.549 494.136 317.619C494.179 317.689 494.237 317.75 494.304 317.798C494.372 317.846 494.448 317.88 494.529 317.898C494.61 317.916 494.694 317.917 494.775 317.903C494.857 317.888 494.934 317.857 495.004 317.812C495.074 317.767 495.133 317.709 495.18 317.641C495.942 316.564 496.683 315.461 497.384 314.363C497.472 314.224 497.502 314.054 497.467 313.893C497.431 313.731 497.333 313.591 497.193 313.502Z" fill="#292A2E"/>
<path d="M424.45 360.716C423.183 361.058 421.907 361.384 420.658 361.687C420.578 361.707 420.503 361.742 420.437 361.79C420.371 361.838 420.315 361.899 420.273 361.969C420.23 362.039 420.202 362.117 420.189 362.197C420.176 362.278 420.18 362.361 420.199 362.441C420.219 362.52 420.253 362.595 420.302 362.661C420.35 362.727 420.411 362.783 420.481 362.826C420.551 362.868 420.628 362.897 420.709 362.909C420.79 362.922 420.873 362.919 420.952 362.899C422.211 362.594 423.498 362.264 424.775 361.92C424.854 361.899 424.928 361.862 424.993 361.812C425.058 361.762 425.112 361.7 425.153 361.629C425.194 361.558 425.22 361.48 425.231 361.399C425.242 361.317 425.236 361.235 425.215 361.156C425.193 361.077 425.157 361.003 425.107 360.938C425.057 360.873 424.994 360.819 424.923 360.778C424.853 360.737 424.774 360.711 424.693 360.7C424.612 360.689 424.529 360.695 424.45 360.716Z" fill="#292A2E"/>
<path d="M471.257 197.324C471.4 197.36 471.551 197.344 471.684 197.278C471.816 197.213 471.921 197.103 471.98 196.968C472.038 196.832 472.047 196.681 472.005 196.539C471.962 196.398 471.871 196.276 471.747 196.196C470.662 195.493 469.539 194.789 468.409 194.102C468.267 194.016 468.098 193.99 467.937 194.029C467.776 194.068 467.638 194.17 467.552 194.311C467.466 194.453 467.439 194.622 467.479 194.783C467.518 194.944 467.62 195.082 467.761 195.168C468.882 195.849 469.995 196.548 471.069 197.243C471.127 197.28 471.19 197.308 471.257 197.324Z" fill="#292A2E"/>
<path d="M433.813 357.894C432.586 358.303 431.332 358.705 430.086 359.09C430.008 359.114 429.935 359.154 429.872 359.206C429.809 359.258 429.757 359.322 429.719 359.395C429.68 359.467 429.657 359.546 429.649 359.628C429.642 359.709 429.65 359.792 429.674 359.87C429.698 359.948 429.738 360.021 429.79 360.084C429.842 360.147 429.906 360.199 429.979 360.237C430.051 360.275 430.131 360.299 430.212 360.307C430.294 360.314 430.376 360.306 430.454 360.282C431.709 359.896 432.972 359.491 434.208 359.078C434.365 359.026 434.495 358.913 434.569 358.765C434.642 358.617 434.655 358.446 434.602 358.289C434.55 358.133 434.437 358.003 434.289 357.929C434.141 357.855 433.97 357.843 433.813 357.895L433.813 357.894Z" fill="#292A2E"/>
<path d="M451.948 350.611C450.78 351.168 449.585 351.718 448.397 352.246C448.252 352.317 448.14 352.442 448.085 352.593C448.029 352.745 448.035 352.912 448.101 353.06C448.166 353.208 448.286 353.324 448.436 353.385C448.586 353.446 448.753 353.446 448.903 353.386C450.1 352.853 451.306 352.298 452.484 351.737C452.633 351.666 452.748 351.538 452.803 351.383C452.858 351.227 452.85 351.055 452.778 350.906C452.707 350.757 452.58 350.642 452.424 350.587C452.268 350.531 452.097 350.54 451.948 350.611H451.948Z" fill="#292A2E"/>
<path d="M460.617 346.113C459.497 346.746 458.343 347.376 457.189 347.984C457.042 348.062 456.932 348.194 456.883 348.352C456.834 348.51 456.85 348.681 456.927 348.827C457.004 348.974 457.137 349.083 457.295 349.132C457.453 349.181 457.624 349.166 457.77 349.089C458.936 348.474 460.1 347.839 461.231 347.2C461.375 347.118 461.481 346.983 461.525 346.824C461.569 346.664 461.548 346.494 461.467 346.35C461.386 346.206 461.25 346.101 461.091 346.056C460.932 346.012 460.761 346.033 460.617 346.114V346.113Z" fill="#292A2E"/>
<path d="M493.357 216.536C493.483 216.568 493.617 216.559 493.738 216.511C493.86 216.462 493.963 216.377 494.033 216.267C494.104 216.157 494.138 216.027 494.13 215.897C494.123 215.766 494.075 215.641 493.993 215.54C493.18 214.535 492.315 213.524 491.423 212.537C491.311 212.42 491.157 212.35 490.995 212.344C490.832 212.338 490.674 212.396 490.553 212.505C490.433 212.614 490.359 212.765 490.349 212.927C490.338 213.09 490.392 213.25 490.497 213.373C491.374 214.344 492.224 215.336 493.023 216.324C493.108 216.429 493.225 216.504 493.357 216.536Z" fill="#292A2E"/>
<path d="M442.992 354.528C441.799 355.006 440.572 355.481 439.344 355.939C439.193 356 439.072 356.117 439.006 356.266C438.941 356.415 438.936 356.584 438.993 356.736C439.049 356.889 439.164 357.013 439.311 357.082C439.458 357.152 439.627 357.161 439.78 357.108C441.018 356.648 442.254 356.167 443.456 355.685C443.534 355.656 443.606 355.612 443.666 355.555C443.727 355.498 443.775 355.429 443.809 355.353C443.843 355.277 443.861 355.195 443.862 355.112C443.864 355.028 443.848 354.946 443.817 354.868C443.786 354.791 443.74 354.721 443.682 354.662C443.623 354.603 443.553 354.556 443.476 354.524C443.399 354.492 443.317 354.476 443.233 354.477C443.15 354.478 443.068 354.495 442.992 354.528Z" fill="#292A2E"/>
<path d="M486.707 209.352C486.841 209.386 486.983 209.375 487.11 209.32C487.236 209.265 487.341 209.169 487.408 209.048C487.475 208.927 487.499 208.787 487.478 208.651C487.457 208.514 487.39 208.389 487.29 208.294C486.357 207.404 485.376 206.509 484.374 205.633C484.249 205.524 484.086 205.469 483.921 205.48C483.756 205.492 483.602 205.568 483.494 205.692C483.385 205.817 483.33 205.98 483.341 206.145C483.352 206.31 483.429 206.463 483.553 206.572C484.542 207.436 485.509 208.318 486.429 209.194C486.506 209.27 486.602 209.325 486.707 209.352Z" fill="#292A2E"/>
<path d="M479.266 202.978C479.405 203.013 479.552 202.998 479.681 202.938C479.811 202.877 479.916 202.774 479.978 202.645C480.041 202.516 480.057 202.37 480.024 202.231C479.992 202.092 479.913 201.968 479.8 201.88C478.781 201.092 477.716 200.299 476.636 199.524C476.57 199.472 476.494 199.433 476.412 199.411C476.331 199.389 476.246 199.384 476.162 199.396C476.079 199.407 475.998 199.436 475.926 199.48C475.854 199.523 475.791 199.581 475.742 199.649C475.693 199.718 475.658 199.796 475.64 199.878C475.622 199.96 475.62 200.045 475.636 200.128C475.651 200.211 475.683 200.29 475.73 200.36C475.777 200.43 475.838 200.49 475.908 200.536C476.977 201.303 478.029 202.086 479.037 202.865C479.105 202.918 479.183 202.957 479.266 202.978Z" fill="#292A2E"/>
<path d="M136.85 18.9113L137.152 39.0201L211.165 0.5354L136.85 18.9113Z" fill="#ED78A4"/>
<path opacity="0.2" d="M136.85 18.9113L137.152 39.0201L211.165 0.5354L136.85 18.9113Z" fill="#0A0A0A"/>
<path d="M140.693 24.8508L137.152 39.0201L193.779 8.4668L140.693 24.8508Z" fill="#ED78A4"/>
<path opacity="0.1" d="M140.693 24.8508L137.152 39.0201L193.779 8.4668L140.693 24.8508Z" fill="#0A0A0A"/>
<path d="M129.953 8.03987L211.165 0.5354L154.159 49.2903L140.693 24.8507L211.165 0.5354L136.85 18.9113L129.953 8.03987Z" fill="#ED78A4"/>
<path d="M125.131 164.215L302.794 277.237L480.456 164.215L302.732 0L125.131 164.215Z" fill="#02162F"/>
<path d="M446.029 23.9846H159.561V337.02H446.029V23.9846Z" fill="white"/>
<path d="M446.489 337.481H159.1V23.5247H446.489V337.481ZM160.02 336.561H445.568V24.4447H160.02L160.02 336.561Z" fill="#292A2E"/>
<path d="M245.897 52.0559H187.127V110.816H245.897V52.0559Z" fill="white"/>
<path d="M246.357 111.276H186.666V51.5955H246.357V111.276ZM187.587 110.356H245.437V52.5155H187.586L187.587 110.356Z" fill="#292A2E"/>
<path d="M419.557 133.849H187.127V134.769H419.557V133.849Z" fill="#292A2E"/>
<path d="M419.557 155.894H187.127V156.814H419.557V155.894Z" fill="#292A2E"/>
<path d="M419.557 177.938H187.127V178.858H419.557V177.938Z" fill="#292A2E"/>
<path d="M419.557 199.983H187.127V200.903H419.557V199.983Z" fill="#292A2E"/>
<path d="M419.557 222.027H187.127V222.947H419.557V222.027Z" fill="#292A2E"/>
<path d="M419.557 244.072H187.127V244.992H419.557V244.072Z" fill="#292A2E"/>
<path d="M480.456 385.577H125.131V164.215L302.794 272.637L480.456 164.215V385.577Z" fill="#0B83C7"/>
<path opacity="0.83" d="M480.456 385.577H125.131V164.215L302.794 272.637L480.456 164.215V385.577Z" fill="white"/>
<path d="M30.8144 377.917L29.8197 384.219C29.7119 384.902 29.3656 385.524 28.8423 385.976C28.319 386.427 27.6526 386.678 26.9615 386.685L1.62291 386.931C1.25897 386.934 0.904679 386.814 0.618248 386.589C0.331818 386.365 0.130277 386.049 0.0467337 385.695C-0.0368098 385.341 0.00261169 384.969 0.158522 384.64C0.314433 384.311 0.577562 384.045 0.904684 383.886L16.1172 376.476L30.8144 377.917Z" fill="#E98862"/>
<path d="M60.4551 345.792C60.4551 345.792 60.2839 382.971 87.1933 386.412L112.527 363.23L128.234 331.907L69.4438 338.393L60.4551 345.792Z" fill="#262626"/>
<path d="M59.7306 343.767L59.6505 343.788C59.6505 343.788 59.3887 342.213 59.7306 343.767Z" fill="#333333"/>
<path d="M161.68 236.087C161.674 236.071 161.658 236.063 161.648 236.049L161.902 235.537C162.08 235.193 162.134 234.799 162.055 234.421C161.975 234.042 161.767 233.703 161.467 233.46C161.275 233.312 161.052 233.208 160.816 233.156C160.579 233.103 160.333 233.104 160.097 233.159C159.86 233.213 159.639 233.319 159.448 233.469C159.258 233.619 159.103 233.81 158.995 234.027L158.408 235.21C158.403 235.206 158.402 235.198 158.395 235.195C158.389 235.191 158.377 235.195 158.369 235.195C158.457 234.834 158.419 234.455 158.262 234.118C158.106 233.782 157.84 233.509 157.507 233.344C156.679 232.861 155.723 233.557 155.345 234.322L151.813 241.14L151.918 238.932C151.947 238.502 151.812 238.078 151.54 237.744C151.268 237.41 150.88 237.191 150.453 237.132C150.232 237.11 150.008 237.132 149.796 237.199C149.583 237.266 149.387 237.375 149.218 237.52C149.05 237.666 148.913 237.844 148.815 238.043C148.718 238.243 148.662 238.461 148.651 238.683L148.076 250.742C148.009 252.157 148.496 253.542 149.434 254.603C150.372 255.665 151.687 256.319 153.099 256.427C154.737 256.552 156.375 256.184 157.803 255.372C159.231 254.56 160.384 253.341 161.114 251.869C161.114 251.869 162.194 235.459 161.68 236.087Z" fill="#E98862"/>
<path d="M151.475 216.244L148.265 216.787C147.039 216.994 146.213 218.156 146.421 219.382L150.995 246.414C151.203 247.639 152.365 248.465 153.591 248.257L156.801 247.714C158.027 247.507 158.853 246.345 158.645 245.119L154.071 218.088C153.863 216.862 152.701 216.036 151.475 216.244Z" fill="#292A2E"/>
<path d="M142.653 204.874L141.673 205.04C135.596 206.068 131.503 211.827 132.532 217.903C133.56 223.978 139.319 228.07 145.396 227.042L146.377 226.876C152.453 225.848 156.546 220.089 155.518 214.014C154.489 207.938 148.73 203.846 142.653 204.874Z" fill="#ED78A4"/>
<path d="M180.115 216.753L178.021 217.758L175.641 203.691L177.875 203.77C178.059 205.772 178.33 207.878 178.698 210.046C179.096 212.403 179.576 214.657 180.115 216.753Z" fill="#0B83C7"/>
<path d="M186.308 208.761C186.775 211.521 186.577 213.859 185.867 213.979C185.783 213.985 185.699 213.972 185.622 213.94C185.545 213.908 185.476 213.858 185.421 213.795C184.797 213.223 184.11 211.409 183.736 209.198C183.388 207.144 183.408 205.327 183.736 204.48C183.848 204.188 183.996 204.011 184.178 203.981C184.885 203.857 185.841 205.998 186.308 208.761Z" fill="#0B83C7"/>
<path d="M178.706 210.092C178.704 210.076 178.701 210.062 178.699 210.046C177.181 201.075 178.386 191.357 179.809 187.658C174.236 193.305 166.125 199.064 158.508 201.401C155.435 202.344 151.675 203.203 145.963 204.161L149.736 226.463C155.445 225.49 159.278 225.065 162.491 224.945C170.451 224.646 180.005 227.416 187.125 230.916C184.564 227.891 180.227 219.108 178.71 210.139L178.706 210.092Z" fill="#ED78A4"/>
<path d="M153.442 201.699L141.622 203.698C141.176 203.774 140.876 204.196 140.951 204.642L144.831 227.567C144.906 228.012 145.329 228.313 145.774 228.237L157.595 226.237C158.041 226.162 158.341 225.74 158.265 225.294L154.386 202.369C154.31 201.923 153.888 201.623 153.442 201.699Z" fill="#292A2E"/>
<path opacity="0.1" d="M153.442 201.699L141.622 203.698C141.176 203.774 140.876 204.196 140.951 204.642L144.831 227.567C144.906 228.012 145.329 228.313 145.774 228.237L157.595 226.237C158.041 226.162 158.341 225.74 158.265 225.294L154.386 202.369C154.31 201.923 153.888 201.623 153.442 201.699Z" fill="white"/>
<path d="M189.94 208.144C191.981 220.207 191.117 230.409 188.014 230.934C187.396 231.039 186.737 230.753 186.064 230.129C186.06 230.129 186.06 230.127 186.056 230.129C183.331 227.627 180.331 219.705 178.695 210.048C177.176 201.078 177.265 193.141 178.688 189.442C179.176 188.167 179.823 187.396 180.62 187.261C183.725 186.734 187.899 196.084 189.94 208.144Z" fill="#ED78A4"/>
<path opacity="0.3" d="M189.94 208.144C191.981 220.207 191.117 230.409 188.014 230.934C187.396 231.039 186.737 230.753 186.064 230.129C186.06 230.129 186.06 230.127 186.056 230.129C183.331 227.627 180.331 219.705 178.695 210.048C177.176 201.078 177.265 193.141 178.688 189.442C179.176 188.167 179.823 187.396 180.62 187.261C183.725 186.734 187.899 196.084 189.94 208.144Z" fill="#0C0C0C"/>
<path opacity="0.6" d="M184.178 203.991L185.87 213.991L180.115 216.751C179.576 214.655 179.097 212.401 178.698 210.044C178.33 207.876 178.058 205.77 177.875 203.768L184.178 203.991Z" fill="white"/>
<path d="M186.308 208.761C186.775 211.521 186.577 213.859 185.867 213.979C185.783 213.985 185.699 213.972 185.622 213.94C185.545 213.908 185.476 213.858 185.421 213.795C184.797 213.223 184.11 211.409 183.736 209.198C183.388 207.144 183.408 205.327 183.736 204.48C183.848 204.188 183.996 204.011 184.178 203.981C184.885 203.857 185.841 205.998 186.308 208.761Z" fill="white"/>
<path d="M152.513 240.393C152.649 240.083 152.877 239.823 153.167 239.648C153.457 239.473 153.794 239.393 154.131 239.418C154.127 239.398 154.128 239.377 154.134 239.358C154.14 239.338 154.15 239.32 154.164 239.306C154.178 239.291 154.196 239.28 154.215 239.274C154.235 239.267 154.256 239.266 154.276 239.269L153.1 238.522C152.749 238.309 152.487 237.977 152.362 237.586C152.237 237.195 152.258 236.772 152.42 236.396C152.593 236.029 152.896 235.739 153.27 235.583C153.644 235.427 154.063 235.415 154.445 235.55C154.441 235.534 154.451 235.518 154.453 235.502L153.97 235.194C153.64 234.993 153.39 234.683 153.262 234.318C153.134 233.953 153.136 233.556 153.268 233.192C153.355 232.966 153.491 232.762 153.667 232.595C153.843 232.427 154.053 232.301 154.284 232.225C154.514 232.149 154.759 232.126 154.999 232.156C155.24 232.185 155.471 232.268 155.676 232.398L156.79 233.107C156.793 233.1 156.79 233.094 156.793 233.087C156.797 233.081 156.809 233.078 156.815 233.071C156.553 232.808 156.389 232.464 156.349 232.095C156.309 231.726 156.395 231.355 156.594 231.042C157.054 230.2 158.232 230.301 158.952 230.759L161.111 232.379C161.443 232.629 161.709 232.957 161.885 233.335C162.06 233.712 162.139 234.127 162.115 234.543C161.912 238.14 161.155 247.522 158.855 246.06L153.192 242.461C152.862 242.243 152.616 241.92 152.493 241.545C152.37 241.169 152.377 240.763 152.513 240.393Z" fill="#E98862"/>
<path d="M143.729 247.459L136.224 288.063L117.041 258.502L102.385 275.717L132.951 317.461L133.211 317.702C134.784 319.133 136.697 320.14 138.767 320.628C140.838 321.116 142.998 321.069 145.045 320.491C147.093 319.913 148.959 318.823 150.469 317.325C151.978 315.826 153.082 313.968 153.674 311.926L166.263 251.073L143.729 247.459Z" fill="#0B83C7"/>
<path d="M135.183 292.057C135.162 292.057 135.141 292.054 135.121 292.048C135.063 292.031 135.013 291.993 134.983 291.94C134.953 291.887 134.945 291.824 134.961 291.765L136.002 288.001C136.018 287.943 136.057 287.893 136.11 287.862C136.163 287.832 136.226 287.825 136.285 287.841C136.344 287.857 136.394 287.896 136.424 287.949C136.454 288.002 136.462 288.065 136.446 288.124L135.404 291.887C135.391 291.936 135.362 291.979 135.322 292.009C135.282 292.04 135.233 292.056 135.183 292.057Z" fill="#0C0C0C"/>
<path d="M51.856 224.757C51.856 224.757 52.1091 235.628 50.0308 239.768C44.0466 251.685 43.1618 264.563 50.7669 270.568C58.3721 276.573 103.097 272.638 105.111 257.075C106.806 243.972 100.562 243.142 98.1171 232.679C97.0128 227.945 94.2522 218.057 94.2522 218.057" fill="#0A0A0A"/>
<path d="M94.8118 253.66C94.7341 253.666 96.7558 267.815 80.2669 269.924C68.8516 271.385 62.3986 260.281 62.1387 260.333C63.2981 259.827 65.209 258.959 65.7422 258.637C67.7598 257.417 69.3048 255.885 69.171 252.331C69.0941 250.282 66.4563 240.261 66.2198 238.222L84.2662 238.537C84.8928 242.82 85.2163 252.979 91.4875 253.505C92.5329 253.589 93.6473 253.636 94.8118 253.66Z" fill="#E98862"/>
<path d="M86.9232 250.26C86.4745 249.444 86.1164 248.582 85.8553 247.689C85.2407 245.653 84.8505 243.557 84.6917 241.437C81.0873 241.683 77.4862 240.913 74.2974 239.215C74.2196 240.464 73.5152 245.995 74.2353 247.02C75.5935 248.955 80.6409 251.547 86.9232 250.26Z" fill="#0C0C0C"/>
<path d="M83.2118 247.395C76.3562 248.687 67.1541 246.726 64.4726 237.683L62.051 229.523C59.3677 220.48 61.9429 211.74 70.459 209.214C78.9752 206.688 87.5157 212.13 90.1976 221.175L91.2697 224.787C92.3008 228.256 95.4461 245.09 83.2118 247.395Z" fill="#E98862"/>
<path d="M84.6586 234.331L84.6751 234.326C85.0199 234.222 85.3586 234.098 85.6897 233.956C86.1834 233.739 86.8248 233.399 86.6904 232.948C86.5381 232.432 83.4766 227.289 83.1278 226.707C83.0973 226.656 83.0477 226.619 82.9901 226.604C82.9324 226.59 82.8713 226.599 82.8202 226.629C82.7691 226.66 82.7323 226.709 82.7177 226.767C82.7032 226.825 82.7122 226.886 82.7427 226.937C84.048 229.126 86.1581 232.729 86.2607 233.076C86.2197 233.245 85.4039 233.643 84.5477 233.897C84.4932 233.915 84.4473 233.952 84.4196 234.002C84.3919 234.052 84.3843 234.111 84.3985 234.167C84.4126 234.222 84.4475 234.27 84.4958 234.301C84.5441 234.331 84.6024 234.342 84.6586 234.331V234.331Z" fill="#0C0C0C"/>
<path d="M83.7779 238.443C85.1757 238.115 86.4768 237.463 87.5766 236.54C87.5995 236.522 87.6185 236.499 87.6326 236.473C87.6466 236.447 87.6555 236.419 87.6586 236.389C87.6617 236.36 87.6591 236.331 87.6507 236.302C87.6424 236.274 87.6286 236.248 87.6101 236.225C87.5917 236.202 87.5688 236.183 87.543 236.169C87.5171 236.155 87.4888 236.146 87.4595 236.143C87.4302 236.14 87.4006 236.142 87.3724 236.151C87.3442 236.159 87.3179 236.173 87.295 236.191C84.9079 238.116 82.3953 238.644 80.0289 237.717C79.981 237.697 79.932 237.68 79.8822 237.665C79.8245 237.65 79.7635 237.659 79.7125 237.69C79.6615 237.72 79.6247 237.77 79.6102 237.828C79.5958 237.885 79.6048 237.946 79.6354 237.997C79.6659 238.048 79.7155 238.085 79.7731 238.1C79.7915 238.105 79.8224 238.118 79.8651 238.135C81.1097 238.625 82.4721 238.732 83.7779 238.443Z" fill="#0C0C0C"/>
<path d="M55.398 233.129L63.0358 230.911C68.6882 227.926 69.4313 217.541 69.4313 217.541C69.4313 217.541 77.2991 223.791 94.2504 218.057C94.2504 218.057 88.3095 194.215 63.3892 203.858C55.3538 206.967 50.2683 215.899 52.14 226.955C53.4559 234.703 55.398 233.129 55.398 233.129Z" fill="#0A0A0A"/>
<path d="M65.8203 240.281C63.2322 241.049 60.3128 238.901 59.5449 236.315C58.777 233.729 60.4518 231.678 63.0417 230.911L64.8895 232.249L68.0472 239.621L65.8203 240.281Z" fill="#E98862"/>
<path d="M84.2699 222.135C84.989 221.56 85.8497 221.189 86.7618 221.061C87.2104 220.995 87.6665 220.997 88.1145 221.066C88.5575 221.134 88.9903 221.256 89.4028 221.431C89.4607 221.453 89.5078 221.496 89.5338 221.552C89.5597 221.608 89.5625 221.672 89.5414 221.73C89.5203 221.789 89.4772 221.836 89.4213 221.862C89.3655 221.889 89.3014 221.892 89.2432 221.871L89.2257 221.865C88.8461 221.725 88.4504 221.632 88.0478 221.589C87.6496 221.546 87.2471 221.563 86.8538 221.639C86.0734 221.785 85.3453 222.134 84.7433 222.651L84.724 222.669C84.6898 222.701 84.6495 222.727 84.6053 222.743C84.5611 222.76 84.514 222.768 84.4668 222.766C84.4196 222.764 84.3733 222.753 84.3306 222.732C84.2879 222.712 84.2497 222.684 84.2182 222.648C84.1868 222.613 84.1628 222.572 84.1476 222.527C84.1324 222.483 84.1264 222.435 84.1299 222.388C84.1334 222.341 84.1463 222.295 84.1679 222.253C84.1895 222.211 84.2193 222.174 84.2556 222.144L84.2699 222.135Z" fill="#0C0C0C"/>
<path d="M77.7862 224.576C76.9996 224.466 76.198 224.566 75.4626 224.866C75.0906 225.015 74.7432 225.219 74.432 225.471C74.1165 225.725 73.8341 226.017 73.5914 226.341L73.5803 226.355C73.5418 226.401 73.4868 226.431 73.4269 226.438C73.3669 226.445 73.3066 226.428 73.2586 226.392C73.2105 226.355 73.1784 226.302 73.1689 226.242C73.1594 226.183 73.1733 226.122 73.2076 226.072C73.4597 225.701 73.7576 225.363 74.0943 225.067C74.4334 224.766 74.8157 224.518 75.2284 224.331C76.0645 223.944 76.9892 223.79 77.9053 223.884C77.9959 223.897 78.0779 223.945 78.1339 224.017C78.19 224.089 78.2157 224.18 78.2056 224.271C78.1956 224.362 78.1506 224.446 78.0801 224.504C78.0096 224.562 77.9192 224.591 77.828 224.584H77.8133L77.7862 224.576Z" fill="#0C0C0C"/>
<path d="M84.2932 240.504C84.5468 240.448 84.7952 240.371 85.0358 240.274C85.0654 240.265 85.0929 240.249 85.1164 240.229C85.1399 240.209 85.1589 240.184 85.1723 240.156C85.1856 240.128 85.193 240.097 85.194 240.066C85.1949 240.035 85.1894 240.004 85.1778 239.976C85.1662 239.947 85.1487 239.921 85.1265 239.899C85.1043 239.877 85.0779 239.861 85.0488 239.85C85.0197 239.839 84.9887 239.834 84.9577 239.836C84.9268 239.837 84.8965 239.846 84.8688 239.86C83.4203 240.441 82.5135 239.958 82.4762 239.937C82.4243 239.908 82.3631 239.901 82.3059 239.917C82.2486 239.933 82.2002 239.972 82.1712 240.023C82.1421 240.075 82.1349 240.136 82.151 240.194C82.1671 240.251 82.2053 240.299 82.2572 240.328C82.8953 240.62 83.6146 240.682 84.2932 240.504Z" fill="#0C0C0C"/>
<path d="M63.0467 230.81L62.9473 230.603C72.454 226.059 69.0538 216.628 69.0184 216.536L69.2337 216.455C69.2701 216.55 72.7416 226.176 63.0467 230.81Z" fill="#0C0C0C"/>
<path opacity="0.1" d="M77.7289 235.722C78.855 235.483 79.6263 234.621 79.4514 233.795C79.2766 232.969 78.2219 232.492 77.0958 232.731C75.9696 232.969 75.1984 233.832 75.3732 234.658C75.548 235.484 76.6027 235.96 77.7289 235.722Z" fill="#0C0C0C"/>
<path opacity="0.1" d="M89.4562 231.303C89.6334 232.127 90.6875 232.603 91.8138 232.367C92.0084 232.325 92.1982 232.263 92.3802 232.183C92.3434 231.184 92.2606 230.227 92.1502 229.345C91.8269 229.294 91.497 229.304 91.1775 229.375C90.053 229.611 89.2819 230.475 89.4562 231.303Z" fill="#0C0C0C"/>
<path d="M89.0004 224.948C89.6047 224.948 90.0945 224.458 90.0945 223.854C90.0945 223.25 89.6047 222.76 89.0004 222.76C88.3961 222.76 87.9062 223.25 87.9062 223.854C87.9062 224.458 88.3961 224.948 89.0004 224.948Z" fill="#0C0C0C"/>
<path d="M78.2172 227.916C78.8215 227.916 79.3113 227.427 79.3113 226.822C79.3113 226.218 78.8215 225.729 78.2172 225.729C77.6129 225.729 77.123 226.218 77.123 226.822C77.123 227.427 77.6129 227.916 78.2172 227.916Z" fill="#0C0C0C"/>
<path d="M121.295 280.296C122.014 286.409 127.209 324.404 128.234 331.905L60.4552 345.792C58.704 339.195 51.0028 310.361 46.8756 297.606C42.9371 285.434 39.2148 279.242 40.1686 273.335C41.2825 266.439 50.389 263.678 56.2894 261.613C59.8925 260.352 65.3926 258.853 65.3926 258.853C65.3926 258.853 67.8211 268.302 79.183 266.527C94.6495 264.111 91.4131 253.522 91.489 253.506C93.9708 253 106.35 252.156 110.24 253.502C120.838 257.159 119.771 267.34 121.295 280.296Z" fill="#0B83C7"/>
<path d="M121.981 284.42L121.525 284.486L124.96 308.092L125.415 308.026L121.981 284.42Z" fill="#0C0C0C"/>
<path d="M34.3782 381.902L12.2148 375.735C22.4683 338.897 39.1146 278.311 40.1309 272.556C40.0461 273.1 40.0095 273.651 40.0214 274.202L63.0245 273.877C63.0567 276.143 63.076 277.511 48.5215 330.668C41.5334 356.191 34.4486 381.648 34.3782 381.902Z" fill="#0B83C7"/>
<path d="M56.9779 296.019L52.332 316.942L52.7812 317.042L57.4271 296.119L56.9779 296.019Z" fill="#0C0C0C"/>
<path d="M106.358 338.105C106.358 338.105 166.795 306.888 183.535 301.114C187.871 299.619 195.795 298.242 202.587 302.212C222.848 314.057 276.353 362.286 276.353 362.286L263.355 381.705L192.674 331.094C192.674 331.094 158.807 355.252 128.233 365.877L97.373 362.231L106.358 338.105Z" fill="#262626"/>
<path d="M284.297 367.903C284.297 367.903 295.122 366.144 296.019 356.086C296.915 346.027 304.88 348.449 304.88 348.449L303.745 386.954L284.503 386.388L284.297 367.903Z" fill="#0B83C7"/>
<path d="M87.1913 386.411C87.1913 386.411 83.9591 386.195 91.2982 386.437C118.675 387.338 290.571 386.887 290.571 386.887L290.658 361.105L87.2498 346.675L87.1913 386.411Z" fill="#262626"/>
<path d="M160.313 352.002C160.303 352.003 160.294 352.003 160.284 352.002L140.235 349.476C140.205 349.472 140.176 349.462 140.149 349.447C140.123 349.432 140.1 349.412 140.082 349.389C140.063 349.365 140.049 349.337 140.041 349.308C140.033 349.279 140.031 349.249 140.035 349.219C140.038 349.188 140.048 349.159 140.063 349.133C140.077 349.106 140.097 349.083 140.121 349.064C140.145 349.046 140.173 349.032 140.202 349.025C140.232 349.017 140.262 349.015 140.292 349.019L160.341 351.546C160.402 351.55 160.459 351.578 160.5 351.623C160.54 351.669 160.561 351.729 160.557 351.79C160.553 351.851 160.526 351.908 160.48 351.949C160.434 351.989 160.374 352.01 160.313 352.006V352.002Z" fill="white"/>
<path d="M274.594 360.019H274.577L226.404 356.607C226.343 356.602 226.286 356.574 226.246 356.528C226.206 356.482 226.186 356.421 226.19 356.36C226.194 356.299 226.223 356.243 226.269 356.203C226.315 356.162 226.375 356.142 226.436 356.147L274.609 359.559C274.67 359.561 274.728 359.587 274.77 359.632C274.811 359.677 274.834 359.736 274.832 359.797C274.83 359.858 274.803 359.916 274.759 359.957C274.714 359.999 274.655 360.021 274.594 360.019Z" fill="white"/>
</g>
<defs>
<clipPath id="clip0_575_374">
<rect width="545" height="387" fill="white"/>
</clipPath>
</defs>
</svg>
